<?xml version="1.0" encoding="UTF-8" standalone="no"?>
<!-- Created with Inkscape (http://www.inkscape.org/) -->
<svg id="svg3012" xmlns:rdf="http://www.w3.org/1999/02/22-rdf-syntax-ns#" xmlns="http://www.w3.org/2000/svg" height="639.25" width="614.61" version="1.1" xmlns:cc="http://creativecommons.org/ns#" xmlns:dc="http://purl.org/dc/elements/1.1/">
 <metadata id="metadata3017">
  <rdf:RDF>
   <cc:Work rdf:about="">
    <dc:format>image/svg+xml</dc:format>
    <dc:type rdf:resource="http://purl.org/dc/dcmitype/StillImage"/>
    <dc:title/>
   </cc:Work>
  </rdf:RDF>
 </metadata>
 <g id="layer1" transform="translate(359.99848,-73.880179)">
  <path id="path3185" fill="#040404" d="m-173.27,712.76c-33.936-6.3351-38.279-6.5665-54-2.8774-16.531,3.8792-24.064,3.0439-26.805-2.9721-0.75483-1.6567-1.1947-8.0871-1.1947-17.466,0-18.028-1.7632-25.8-11.132-49.062l-6.2422-15.5-0.368-13.5c-0.2024-7.425,0.28466-20.214,1.0824-28.42,1.1947-12.29,1.2232-15.552,0.16211-18.5-0.70853-1.9688-10.905-22.93-22.66-46.58-23.018-46.313-33.915-70.616-36.991-82.5-2.5588-9.8852-2.7149-30.514-0.33672-44.5,1.9606-11.53,6.9699-27.557,11.282-36.096,6.0907-12.061,28.669-41.136,42.636-54.904,15.803-15.578,25.496-20.327,58.352-28.587,22.923-5.7632,52.385-10.876,64.215-11.145,7.2973-0.16575,9.7027,0.24475,17,2.9011,10.386,3.7806,21.13,5.7719,27.63,5.121,2.6784-0.26818,9.2555-2.3646,14.616-4.6588,5.3603-2.2941,14.36-5.2623,20-6.5958,27.334-6.4636,65.736-23.423,78-34.447,2.6992-2.4264,11.953-13.451,20.565-24.5,44.137-56.629,70.927-82.856,99.15-97.069,10.523-5.2993,14.619-6.6727,22.039-7.3907l6.5-0.62895,0.5-4.7185,0.5-4.7186,5,2.9392,5,2.9392,1.036-7.7207,1.036-7.7207,3.4052,4.7483,3.4053,4.7483,3.0587-4.4661c1.6823-2.4563,3.3515-4.4806,3.7094-4.4983,0.35786-0.0177,1.0696,1.6552,1.5817,3.7178,0.51206,2.0625,1.3443,3.6868,1.8493,3.6096,0.50507-0.0772,2.3808-0.45048,4.1683-0.82945,3.0025-0.63658,3.25-0.4933,3.25,1.8816,0,1.704,2.4441,5.5786,7.25,11.493,8.8358,10.874,13.345,18.202,16.235,26.384,1.2066,3.416,5.5716,11.386,9.7001,17.711,14.697,22.517,30.398,52.126,33.003,62.239,1.073,4.1656,0.96803,5.5564-0.8681,11.5-1.1488,3.7187-4.1537,11.261-6.6776,16.761-3.8577,8.4066-4.9022,12.071-6.5551,23-1.0814,7.15-2.378,17.917-2.8813,23.926-0.83788,10.005-1.1375,11.118-3.5508,13.194-1.4838,1.2763-2.3964,2.891-2.088,3.6946,0.55276,1.4405-1.9461,4.6853-3.6082,4.6853-0.49396,0-3.1709,3.3681-5.9488,7.4848-4.9618,7.3532-8.869,10.515-12.993,10.515-4.1728,0-9.6195,3.141-14.026,8.0884l-4.5086,5.062-4.9001-1.2339c-6.4204-1.6167-11.754-6.9051-14.106-13.987-0.97019-2.921-2.2618-10.814-2.8703-17.54-0.6085-6.7259-1.414-12.535-1.7901-12.91-0.37605-0.37456-2.5138,0.78966-4.7505,2.5871-3.1978,2.5699-5.2524,3.3665-9.6157,3.7283-6.8713,0.56983-8.4427-0.6998-15.669-12.66-2.7794-4.6003-8.1886-12.25-12.02-17-10.937-13.557-12.389-16.525-17.829-36.438-3.8721-14.173-8.5259-23.437-10.688-21.275-0.34262,0.34263,0.37089,3.7087,1.5856,7.4802s3.795,13.318,5.7341,21.215c1.9958,8.1279,4.6632,16.316,6.1473,18.87,3.7486,6.4509,13.707,21.209,20.453,30.311,12.207,16.471,19.075,37.547,22.38,68.686,2.6162,24.649,1.7438,45.047-3.0371,71.014-3.6078,19.595-4.258,25.03-5.981,50-0.85394,12.375-2.0261,26.046-2.6048,30.38-2.3072,17.278-8.3742,35.78-16.108,49.12-2.4906,4.2964-4.6253,9.7001-5.5272,13.991-4.0416,19.23-19.171,45.158-34.263,58.718l-5.8887,5.291-1.0674,14.5c-1.4864,20.191-5.2666,40.957-8.4423,46.376-3.0082,5.133-9.4027,9.624-13.703,9.624-1.8008,0-5.5106,1.4604-8.7714,3.4531-7.5865,4.636-15.712,5.9349-33.025,5.2795-15.104-0.5718-22.891-2.407-26.8-6.3159-2.0166-2.0166-2.3824-3.2488-2.1302-7.1757l0.30442-4.741,9.9212-0.70688c12.259-0.87345,13.426-1.6963,11.609-8.1866-1.5252-5.4476-0.90433-8.4137,2.6441-12.631,2.3784-2.8266,2.7622-4.3574,3.4663-13.827,0.43547-5.8567,1.5113-13.349,2.3906-16.649,0.87938-3.3,1.9668-7.9404,2.4165-10.312,0.7161-3.7766,0.61493-4.228-0.81485-3.6366-0.89785,0.37144-2.471,0.91512-3.496,1.2082-1.6154,0.46191-1.7152,0.25584-0.75-1.5477,2.3441-4.38,1.2802-10.576-6.3942-37.239-4.3596-15.146-4.4184-17.712-0.49228-21.473,3.677-3.5228,3.8327-4.7671,0.4349-3.4752-3.9424,1.4989-4.1647,1.2844-3.4629-3.3404,0.49733-3.277,1.6023-5.1958,4.5915-7.9729,3.8036-3.5339,3.4442-4.8563-0.71487-2.6304-2.7645,1.4795-3.107,0.82478-2.3187-4.432,0.46181-3.0796,1.7941-5.8359,4.1529-8.5916,3.5675-4.1678,3.6223-4.8262,0.2514-3.0222-2.4322,1.3017-2.4353,1.3538,0.59104-9.9425,3.4972-13.054,5.0075-16.049,14.421-28.593,11.482-15.301,12.162-16.856,13.388-30.644,1.364-15.331-0.13307-24.36-8.9289-53.856-8.9029-29.855-13.945-50.614-16.011-65.923-0.93357-6.9174-2.0432-12.969-2.4659-13.447-1.2436-1.4076-2.9172,6.333-2.9232,13.521-0.0112,13.316,7.0428,46.923,14.241,67.849,5.0041,14.547,6.6763,23.767,6.7108,37,0.046,17.681-2.826,29.837-9.1669,38.799-2.87,4.0561-5.035,5.5552-15.779,10.926-26.477,13.235-60.171,21.275-89.157,21.275-16.048,0-35.44-3.1052-50.605-8.1032-5.9157-1.9497-6.2503-2.2294-6.2554-5.2284-0.0109-6.3993-4.0658-30.563-7.4125-44.172-11.167-45.41-31.652-82.582-55.713-101.1-7.0171-5.3995-14.651-9.0179-16.058-7.6112-1.7257,1.7257,1.3697,5.1136,9.7003,10.617,13.267,8.7647,23.558,21.712,34.253,43.094,8.5964,17.186,14.551,37.007,22.382,74.5,5.7875,27.711,4.3305,44.241-4.8442,54.96-2.9434,3.4386-7.8918,7.0405-9.6726,7.0405-0.25811,0-1.1956-2.1867-2.0833-4.8593-3.0217-9.0975-12.316-17.281-21.25-18.709-8.7506-1.399-12.611,2.2058-5.5472,5.1797,11.665,4.9109,17.406,10.895,24.836,25.889,7.7605,15.661,9.5918,31.177,9.2734,78.57-0.21098,31.398-0.19917,31.597,2.1647,36.5,5.5205,11.45,18.504,20.31,32.976,22.502,4.125,0.62471,8.9625,1.7568,10.75,2.5158,2.874,1.2202,3.25,1.8304,3.25,5.2736,0,4.595-2.4338,7.4979-3.4918,4.1646-0.83416-2.6282-4.1508-4.8132-9.9599-6.5615-6.2233-1.873-5.7843-0.0358,0.48945,2.048,3.0394,1.0095,5.6934,2.6738,6.6905,4.1956,1.4753,2.2515,1.4944,2.8051,0.17874,5.1571-2.1206,3.7908-5.0364,3.8383-7.1344,0.11619-1.7313-3.0715-5.4477-5.1508-11.523-6.4469-4.8331-1.0312-3.9357,0.86731,1.0389,2.1978,4.6134,1.2339,9.7111,5.2489,9.7111,7.6485,0,4.1627-7.7304,5.9909-15.685,3.7094-2.4884-0.71366-4.0646-0.46826-7.312,1.1384-4.0957,2.0264-14.609,3.1557-20.003,2.1488zm385-417.35c0-0.53588-1.2703-1.6312-2.8228-2.4341-1.5526-0.80286-3.4077-2.1644-4.1224-3.0257-1.76-2.1207-0.857-2.0747,11.723,0.59691,7.6927,1.6337,10.564,1.896,11.417,1.0427,1.3259-1.3259,1.8977-1.1002-10.694-4.2233-9.2083-2.2839-22.669-7.8284-23.92-9.853-1.0621-1.7186-3.5799-1.347-3.5799,0.52839,0,2.6659,7.8046,12.024,12.771,15.314,4.4544,2.9505,9.2285,4.0129,9.2285,2.0537zm20.155-29.526c4.9704-14.316,5.0674-23.419,0.20663-19.385-1.3038,1.0821-1.8438,0.89789-3.3946-1.1579-2.9929-3.9678-4.3858-10.318-3.083-14.055,2.4845-7.1271,0.70503-9.9019-6.35-9.9019-2.3159,0-3.8075,0.54832-4.1878,1.5394-0.3249,0.84667,0.81422,4.8864,2.5314,8.9772,3.4808,8.2922,4.1288,14.483,1.516,14.483-0.88335,0-3.3516-1.3825-5.485-3.0722-2.5137-1.9909-4.5329-2.8646-5.737-2.4824-2.1062,0.66849-8.1904,8.6831-8.1364,10.718,0.0508,1.9154,1.9743,5.0181,5.7591,9.2894,2.6438,2.9838,3.5733,3.4867,4.7062,2.5465,1.9902-1.6517,3.2587-0.5345,4.6444,4.0906,1.5208,5.0761,7.0594,10.142,10.622,9.7168,2.3059-0.27545,2.959-1.4316,6.3877-11.307zm-17.848-6.75c-8.5057-11.924-8.142-16.208,0.79882-9.4083,7.9165,6.0209,8.8309,6.27,11.363,3.0943,1.4749-1.8497,2.7634-2.5607,3.8708-2.1357,2.0689,0.79392,2.1701,5.0314,0.1599,6.6997-0.825,0.68469-1.5,1.849-1.5,2.5873,0,1.5384-3.4192,3.6602-4.3685,2.7109-0.34731-0.34732-0.63148-1.6815-0.63148-2.9648,0-1.8222-0.54762-2.3333-2.5-2.3333-2.1111,0-2.5,0.46667-2.5,3,0,4.0703-1.108,3.7752-4.6926-1.25zm-35.935,2.2629c3.1811-4.807,9.2682-10.764,11.83-11.577,1.4984-0.47556-0.10158-1.6273-6.8748-4.9488-21.022-10.309-25.224-20.123-14.659-34.237l2.4328-3.25h-2.4291c-3.0263,0-9.447,8.8344-10.317,14.195-1.3633,8.4013,5.6376,16.923,19.322,23.52,4.3023,2.074,7.9749,3.8515,8.1613,3.9499,0.18641,0.0984-1.5046,1.8444-3.7578,3.8801-4.4694,4.0378-9.5466,13.632-10.559,19.954-0.60082,3.7502-0.48586,3.6358,1.841-1.8332,1.365-3.2083,3.6196-7.5525,5.0102-9.6538zm60.627-36.358c0-1.2898-0.89156-3.1519-1.9812-4.138-1.6214-1.4673-2.2571-1.5641-3.5-0.53255-1.5454,1.2825-2.0628,5.1382-0.85209,6.3489,0.36666,0.36667,1.9417,0.66667,3.5,0.66667,2.3056,0,2.8333-0.43676,2.8333-2.345zm-38.629-4.5123c1.5772-1.7428,1.5667-1.9983-0.17081-4.144-1.5454-1.9085-2.4426-2.1758-5.4254-1.6162-5.3454,1.0028-6.4584,2.9346-3.1775,5.5153,3.3016,2.597,6.5626,2.688,8.7736,0.24489zm49.629-10.655c0-3.2483-1.9191-7.2294-3.8854-8.0601-0.888-0.37517-4.5396-1.1874-8.1146-1.805-6.4184-1.1088-6.5299-1.1832-8.8809-5.9243l-2.3808-4.8014-2.1192,1.9344c-4.9078,4.48-8.7267,5.5808-20.756,5.9831-11.232,0.37566-11.705,0.48157-13.568,3.0372-2.5108,3.4446-3.4152,5.9557-2.3763,6.5978,0.45731,0.28263,2.9412-0.20498,5.5197-1.0836,4.5558-1.5523,10.848-1.4891,19.179,0.19262,2.7548,0.55608,3.1938,0.32724,3.769-1.9647,0.51066-2.0346,1.267-2.5941,3.507-2.5941,5.7151,0,9.2451,1.2357,10.122,3.5435,1.1799,3.1034,2.1487,3.5472,9.8102,4.4945,4.1039,0.5074,7.0402,1.4034,7.6262,2.3271,1.2759,2.011,2.547,1.0742,2.547-1.8771zm-117.58,0.90497c2.4657-0.94619,1.8906-2.6338-2.0151-5.9129-2.9406-2.4689-3.6937-3.8781-4.127-7.723-0.49049-4.3516-0.27092-4.9623,2.938-8.1712,4.6832-4.6832,8.1908-5.4937,11.267-2.6035,2.6445,2.4844,4.5955,2.0272,3.8306-0.89764-0.94868-3.6278-4.8618-6.3426-8.1128-5.6286-3.6136,0.79368-10.714,6.7052-12.725,10.594-3.0582,5.914-0.85503,14.59,4.8699,19.177,2.5431,2.0376,2.118,1.9161,4.0746,1.1652zm1.7042-18.393c2.423,0,3.151-1.5282,1.4146-2.9693-3.394-2.8167-8.2873,1.9373-7.0121,6.8124l0.69493,2.6569,1.5715-3.25c0.88967-1.8399,2.335-3.25,3.3311-3.25zm-447.21,516.07c-6.7095-2.109-10.38-6.6663-12.897-16.01-1.6344-6.0698-4.7717-9.8576-14.285-17.247-4.4722-3.4738-10.042-8.0381-12.377-10.143-11.133-10.035-9.0809-26.746,5.688-46.313,7.0471-9.3365,12.737-18.805,31.554-52.504,8.094-14.496,15.893-28.248,17.331-30.561l2.6147-4.2053,4.388,8.2053c2.4134,4.5129,6.9791,12.73,10.146,18.259l5.7581,10.054-1.8686,7.946c-7.3108,31.088-4.0876,58.855,8.3797,72.188l3.0315,3.2421-2.0915,3.7579c-1.1503,2.0668-2.9046,7.408-3.8983,11.869l-1.8068,8.1113-3.1034-1.2967c-2.448-1.0228-3.6136-1.0423-5.5191-0.0924-3.2977,1.6441-6.9216,8.3687-6.9416,12.881-0.0221,4.9843,2.1706,6.1529,8.855,4.7193,2.7464-0.58901,6.4864-0.92765,8.311-0.75253,2.8296,0.27157,3.3662,0.74603,3.6491,3.2263,1.0305,9.0352-2.8039,13.088-13.244,13.999-12.629,1.1015-29.183,1.4501-31.674,0.66694zm445.58-22.384c-1.8669-1.8669-3.821-5.2067-4.4814-7.6592-1.1751-4.3641-0.63053-11.03,0.90113-11.03,0.45028,0,2.0847,1.8269,3.6321,4.0598,3.6355,5.246,5.319,6.0937,9.7001,4.884,7.4046-2.0445,12.435-8.5214,11.304-14.553-0.8598-4.5831-3.1933-5.5849-11.118-4.773-5.6249,0.57628-7.6787,1.3899-13.956,5.529-8.789,5.7948-11.471,6.2188-11.471,1.8135,0-4.267,3.1174-9.8954,9.3486-16.879,4.2424-4.7545,5.7992-7.4926,7.5538-13.285,3.4606-11.425,5.0516-15.449,7.5811-19.177,2.177-3.2079,2.2269-3.5675,0.68273-4.9119-0.91639-0.79786-3.994-2.2081-6.8392-3.1339-6.2082-2.0201-8.0241-3.7502-5.8393-5.5634,4.1984-3.4844-0.75918-9.7004-8.5722-10.748-2.195-0.29441-3.8379-0.81127-3.6509-1.1486,2.996-5.4038,7.1676-15.851,9.8286-24.613,1.907-6.2798,4.9435-13.575,7.0763-17,10.278-16.506,13.759-33.326,18.341-88.62,1.3957-16.841,3.6617-37.766,5.0356-46.5,6.5488-41.631,5.3892-64.968-5.1048-102.73-1.965-7.0705-3.428-13-3.251-13.177s3.065-0.63217,6.4178-1.0115l6.096-0.68968,0.53141,8.518c1.1792,18.901,12.095,31.629,27.174,31.685,5.6706,0.0211,6.0549-0.143,9.5-4.0559,9.4569-10.741,9.6869-10.922,13.869-10.922h3.9791l0.51843,31.25c0.28513,17.188,1.0397,34.175,1.6767,37.75,0.63707,3.575,3.1135,10.775,5.5032,16,16.843,36.827,19.363,62.058,10.492,105.06-1.1843,5.7412-2.3006,10.594-2.4808,10.785-0.18014,0.19052-2.3841-1.0686-4.8978-2.798s-4.5703-2.8785-4.5703-2.5535c0,0.32502,1.827,3.0108,4.06,5.9684,3.9627,5.2486,4.0332,5.4812,2.9405,9.7071-2.2279,8.6163-1.7215,8.2187-6.0756,4.7701-2.1587-1.7097-3.9248-2.7726-3.9248-2.362,0,0.41057,1.4152,2.9519,3.1449,5.6474,3.086,4.809,3.1219,5.004,1.915,10.397l-1.2299,5.4959-2.415-1.5593c-1.3283-0.85763-3.54-2.2861-4.915-3.1743-3.4085-2.2019-3.1379-0.87918,0.8207,4.012,1.8264,2.2566,3.6266,4.6229,4.0006,5.2584,0.37392,0.63547-1.1242,7.8343-3.3291,15.997-6.4311,23.809-7.0992,28.506-5.9123,41.565,0.56406,6.2055,1.8274,14.724,2.8075,18.93l1.782,7.6473-3.9604-1.3973c-7.945-2.8032-15.171-1.068-17.581,4.2217-0.69391,1.523-1.691,6.5474-2.2157,11.165-1.6101,14.17-2.5688,15.127-23.412,23.371-15.904,6.2902-21.433,7.8178-28.35,7.8332-4.7303,0.0105-5.7334-0.37157-8.6604-3.2985z"/>
 </g>
</svg>
